<svg xmlns="http://www.w3.org/2000/svg" viewBox="0 0 64 64" width="64" height="64">
  <rect width="64" height="64" rx="12" fill="#003399"/>
  <g transform="translate(8, 5) scale(0.98)">
    <path fill="#fff" d="M0,0v38.83c0,13.58,11,24.58,24.59,24.58s24.58-11,24.58-24.58V0H0ZM47.06,38.34c-.01,11.46-8.49,21.05-19.87,22.49-12.5,1.59-23.77-7.6-25.01-20.18-.07-.72-.13-1.46-.13-2.18V15.8H34.08c.01.25.04.5.04.74,0,7.28.01,14.56,0,21.84-.01,4.52-3.19,8.49-7.52,9.46-4.43.99-8.93-1.19-10.9-5.31-.13-.25-.22-.51-.38-.9h.93c2.68,0,5.35,0,8.03-.01,1.96,0,3.37-1.37,3.41-3.29.03-1.01,0-2.03,0-3.13H14.82v-6.52h12.83v-6.4H8.28c-.01.25-.03.5-.03.75,0,5.07-.01,10.15,0,15.22.04,9.27,7.43,16.47,16.68,16.31,7.96-.12,15-6.74,15.61-14.65.06-.81.09-1.62.09-2.43.01-6.85.01-13.72.01-20.59V15.8h6.4c0,.28.03.56.03.82v21.69ZM47.06,5.25H2.1v-2.94h44.96v2.94Z"/>
    <g fill="#FFCC00">
      <polygon points="5.44 9.59 6.43 6.55 7.41 9.59 10.61 9.59 8.02 11.47 9.01 14.51 6.43 12.63 3.84 14.51 4.83 11.47 2.25 9.59 5.44 9.59"/>
      <polygon points="14.54 9.59 15.53 6.55 16.52 9.59 19.71 9.59 17.13 11.47 18.12 14.51 15.53 12.63 12.95 14.51 13.93 11.47 11.35 9.59 14.54 9.59"/>
      <polygon points="23.65 9.59 24.64 6.55 25.62 9.59 28.82 9.59 26.23 11.47 27.22 14.51 24.64 12.63 22.05 14.51 23.04 11.47 20.45 9.59 23.65 9.59"/>
      <polygon points="32.75 9.59 33.74 6.55 34.73 9.59 37.92 9.59 35.34 11.47 36.32 14.51 33.74 12.63 31.15 14.51 32.14 11.47 29.56 9.59 32.75 9.59"/>
      <polygon points="41.86 9.59 42.84 6.55 43.83 9.59 47.03 9.59 44.44 11.47 45.43 14.51 42.84 12.63 40.26 14.51 41.25 11.47 38.66 9.59 41.86 9.59"/>
    </g>
  </g>
</svg>