<?xml version="1.0" encoding="UTF-8"?>
<svg id="Layer_1" xmlns="http://www.w3.org/2000/svg" viewBox="0 0 208.97 66.2">
  <defs>
    <style>
      .cls-1 {
        fill: #fff;
      }
    </style>
  </defs>
  <path class="cls-1" d="M158.31,1.4v38.83c0,13.58,11,24.58,24.6,24.58s24.58-11,24.58-24.58V1.4h-49.17ZM205.38,39.74c-.02,11.46-8.48,21.05-19.87,22.5-12.5,1.59-23.78-7.61-25.02-20.19-.07-.72-.13-1.45-.13-2.18v-22.66h32.02c.02.25.04.5.04.73,0,7.29.02,14.56,0,21.85-.02,4.51-3.19,8.48-7.51,9.45-4.43.99-8.93-1.19-10.9-5.3-.13-.25-.22-.51-.38-.9h.93c2.67,0,5.35,0,8.03-.02,1.96,0,3.37-1.37,3.41-3.29.03-1.02,0-2.03,0-3.14h-12.87v-6.52h12.82v-6.39h-19.38c0,.24-.03.5-.03.75,0,5.07-.02,10.14,0,15.22.04,9.27,7.43,16.48,16.68,16.31,7.96-.11,15-6.73,15.61-14.65.06-.81.08-1.62.08-2.43.02-6.86.02-13.72.02-20.59v-1.07h6.4c0,.28.03.56.03.83v21.69ZM167.32,15.91l-2.58-1.88-2.59,1.88.99-3.04-2.58-1.87h3.2l.99-3.04.99,3.04h3.2l-2.59,1.87.99,3.04ZM176.43,15.91l-2.58-1.88-2.59,1.88.99-3.04-2.58-1.87h3.2l.99-3.04.99,3.04h3.2l-2.59,1.87.99,3.04ZM185.54,15.91l-2.59-1.88-2.58,1.88.99-3.04-2.59-1.87h3.2l.99-3.04.99,3.04h3.2l-2.58,1.87.99,3.04ZM194.64,15.91l-2.59-1.88-2.59,1.88.99-3.04-2.59-1.87h3.2l.99-3.04.99,3.04h3.2l-2.59,1.87.99,3.04ZM203.74,15.91l-2.58-1.88-2.59,1.88.99-3.04-2.58-1.87h3.2l.99-3.04.99,3.04h3.2l-2.59,1.87.99,3.04ZM205.38,6.65h-44.96v-2.94h44.96v2.94Z"/>
  <g>
    <g>
      <path class="cls-1" d="M11.04,39.87L1.49,10.05h7.39l3.63,12.61c1.02,3.54,1.95,6.94,2.65,10.66h.13c.75-3.58,1.68-7.12,2.7-10.53l3.8-12.74h7.17l-10.04,29.81h-7.87Z"/>
      <path class="cls-1" d="M48.15,27.26h-10.97v7.08h12.25v5.53h-19.02V10.05h18.4v5.53h-11.63v6.19h10.97v5.48Z"/>
      <path class="cls-1" d="M58.15,10.05v11.46h11.1v-11.46h6.72v29.81h-6.72v-12.47h-11.1v12.47h-6.77V10.05h6.77Z"/>
      <path class="cls-1" d="M85.98,10.05v29.81h-6.77V10.05h6.77Z"/>
      <path class="cls-1" d="M111.06,39.03c-1.24.62-4.03,1.28-7.65,1.28-10.31,0-15.61-6.41-15.61-14.91,0-10.17,7.25-15.84,16.28-15.84,3.49,0,6.15.71,7.34,1.33l-1.37,5.35c-1.37-.57-3.27-1.11-5.66-1.11-5.35,0-9.51,3.23-9.51,9.86,0,5.97,3.54,9.73,9.55,9.73,2.03,0,4.29-.44,5.62-.97l1.02,5.26Z"/>
      <path class="cls-1" d="M113.72,10.05h6.77v24.15h11.86v5.66h-18.62V10.05Z"/>
      <path class="cls-1" d="M151.41,27.26h-10.97v7.08h12.25v5.53h-19.02V10.05h18.4v5.53h-11.63v6.19h10.97v5.48Z"/>
    </g>
    <g>
      <path class="cls-1" d="M60.88,44.77v4.68h4.94v-4.68h2.13v11.67h-2.13v-5.14h-4.94v5.14h-2.13v-11.67h2.13Z"/>
      <path class="cls-1" d="M77.46,44.77v11.67h-2.13v-11.67h2.13Z"/>
      <path class="cls-1" d="M84.78,54.12c.69.4,1.73.74,2.82.74,1.37,0,2.13-.64,2.13-1.59,0-.88-.59-1.4-2.08-1.94-1.92-.69-3.15-1.71-3.15-3.39,0-1.91,1.59-3.36,4.12-3.36,1.26,0,2.2.28,2.81.59l-.52,1.71c-.42-.23-1.23-.55-2.32-.55-1.35,0-1.94.73-1.94,1.4,0,.9.68,1.32,2.23,1.92,2.03.76,3.01,1.78,3.01,3.46,0,1.87-1.42,3.5-4.43,3.5-1.23,0-2.51-.35-3.15-.73l.47-1.77Z"/>
      <path class="cls-1" d="M100.99,46.56h-3.33v-1.78h8.81v1.78h-3.36v9.89h-2.13v-9.89Z"/>
      <path class="cls-1" d="M122.66,50.49c0,3.91-2.37,6.15-5.59,6.15s-5.37-2.51-5.37-5.94,2.25-6.11,5.54-6.11,5.42,2.58,5.42,5.91ZM113.95,50.66c0,2.37,1.19,4.26,3.24,4.26s3.22-1.91,3.22-4.35c0-2.2-1.09-4.28-3.22-4.28s-3.24,1.96-3.24,4.36Z"/>
      <path class="cls-1" d="M129.43,44.93c.8-.14,1.99-.24,3.22-.24,1.68,0,2.82.28,3.6.94.64.54,1,1.35,1,2.34,0,1.51-1.02,2.53-2.11,2.93v.05c.83.31,1.33,1.13,1.63,2.25.36,1.45.68,2.81.92,3.26h-2.2c-.17-.35-.45-1.3-.78-2.75-.33-1.52-.88-2.01-2.1-2.04h-1.07v4.8h-2.11v-11.52ZM131.54,50.09h1.26c1.44,0,2.34-.76,2.34-1.92,0-1.28-.9-1.87-2.29-1.87-.68,0-1.11.05-1.32.1v3.69Z"/>
      <path class="cls-1" d="M146.61,56.44v-4.87l-3.69-6.81h2.42l1.4,3c.4.87.69,1.52,1,2.32h.03c.29-.74.62-1.47,1.02-2.32l1.4-3h2.41l-3.88,6.75v4.92h-2.13Z"/>
    </g>
  </g>
</svg>